<svg width="12" height="7" viewBox="0 0 12 7" fill="none" xmlns="http://www.w3.org/2000/svg">
<path d="M5.99999 6.66153C5.88589 6.66153 5.77532 6.6423 5.66827 6.60383C5.56122 6.56537 5.4609 6.49934 5.36732 6.40576L0.857691 1.89616C0.712824 1.75129 0.642957 1.57822 0.648091 1.37693C0.653207 1.17565 0.728207 1.00257 0.873091 0.857708C1.01796 0.712841 1.19359 0.640408 1.39999 0.640408C1.60639 0.640408 1.78202 0.712841 1.92689 0.857708L5.99999 4.93081L10.0885 0.842333C10.2333 0.697466 10.4064 0.627591 10.6077 0.632708C10.809 0.637841 10.982 0.712841 11.1269 0.857708C11.2718 1.00257 11.3442 1.17822 11.3442 1.38463C11.3442 1.59103 11.2718 1.76667 11.1269 1.91153L6.63267 6.40576C6.53908 6.49934 6.44037 6.56537 6.33652 6.60383C6.23268 6.6423 6.12051 6.66153 5.99999 6.66153Z" fill="#B7B7B7"/>
</svg>
