<svg width="595" height="354" viewBox="0 0 595 354" fill="none" xmlns="http://www.w3.org/2000/svg">
<g clip-path="url(#clip0_344_633)">
<path d="M64.6343 249.645C62.0638 249.922 59.2596 250.337 56.2768 250.945C43.6294 253.522 43.3669 262.115 43.4777 264.086L43.3918 264.032C42.1201 266.073 41.3236 268.139 40.8422 270.089L40.2631 243.751C40.6376 242.97 40.9783 242.084 41.2624 241.176C42.2091 244.093 43.761 246.849 45.0988 246.666C46.8383 246.429 47.5967 241.307 47.2722 237.667C49.4843 240.518 53.2071 243.567 54.6115 242.627C55.7337 241.875 55.0683 238.783 53.8431 235.971C56.396 237.51 59.2234 238.522 60.1007 237.545C61.298 236.211 58.4291 231.661 55.7834 229.12C59.3249 229.451 63.829 228.886 64.1243 227.273C64.3676 225.945 61.687 224.268 58.8177 223.188C61.6997 222.428 64.3946 221.103 64.3053 219.792C64.1991 218.235 60.198 217.192 56.7463 217.033C59.3498 214.995 61.742 212.178 61.0104 210.904C60.3379 209.732 57.2092 210.186 54.3226 211.218C56.0308 208.774 57.2318 206.02 56.3172 205.078C55.1778 203.904 51.1341 205.93 48.3745 208.17C48.9117 204.68 48.6401 200.276 47.0761 199.877C45.7677 199.544 43.9133 202.106 42.6419 204.897C42.08 201.968 40.9425 199.188 39.6296 199.188C37.7594 199.188 36.2433 204.83 36.2433 208.506C36.2433 208.714 36.2488 208.909 36.2583 209.096C36.0706 208.879 35.8554 208.651 35.6101 208.413C32.9747 205.852 27.8733 203.009 26.5704 204.351C25.6557 205.294 26.8567 208.048 28.565 210.492C25.6783 209.46 22.5497 209.006 21.8771 210.177C20.9734 211.752 24.8362 215.681 27.9761 217.587C27.7873 217.564 27.589 217.545 27.378 217.53C23.7128 217.28 17.9839 218.409 17.8566 220.277C17.7672 221.587 20.4622 222.912 23.3441 223.672C20.4749 224.752 17.7942 226.429 18.0375 227.758C18.3328 229.37 22.837 229.935 26.3785 229.605C23.7327 232.145 20.8639 236.695 22.0611 238.029C22.9385 239.006 25.7659 237.994 28.3188 236.455C27.0936 239.267 26.4281 242.36 27.5504 243.111C29.0334 244.103 33.1008 240.648 35.2454 237.675C35.0268 241.312 35.8965 246.309 37.6222 246.506C38.3439 246.589 39.1086 245.819 39.7987 244.633L37.8441 272.943C37.3872 276.24 40.3097 278.391 40.5709 279.749L40.9925 298.92C40.5167 297.555 39.8758 296.158 39.012 294.771L38.926 294.825C39.0369 292.854 38.7742 284.261 26.127 281.684C23.1442 281.076 20.34 280.661 17.7695 280.384C14.7353 280.057 13.5517 284.214 16.2928 285.556C20.2624 287.5 23.9965 289.95 25.9428 292.85C30.9189 300.266 37.7943 295.98 38.7718 295.314C39.8637 297.133 40.5796 298.965 41.0318 300.709L41.2557 310.89C41.2009 311.13 41.1629 311.265 41.16 311.275L41.2649 311.306L41.8067 335.945L46.8328 335.905L45.035 310.72C45.3371 309.361 46.2665 304.733 45.035 299.927L43.2373 280.139C43.2328 280.123 43.3393 280.658 43.2373 280.139L40.8923 272.363C41.2333 269.958 42.0246 267.252 43.6319 264.575C44.6094 265.241 51.4849 269.527 56.4609 262.111C58.4072 259.211 62.1414 256.761 66.111 254.817C68.852 253.475 67.6685 249.318 64.6343 249.645ZM41.6746 307.94L41.5799 303.631C41.771 305.26 41.7613 306.731 41.6746 307.94Z" fill="#F2F2F2"/>
<path d="M0 337.121C0 337.658 0.431025 338.089 0.967766 338.089H594.032C594.569 338.089 595 337.658 595 337.121C595 336.584 594.569 336.152 594.032 336.152H0.967766C0.431025 336.152 0 336.584 0 337.121Z" fill="#3F3D56"/>
<path d="M359.909 337.98C384.162 337.98 403.822 318.306 403.822 294.038C403.822 269.769 384.162 250.096 359.909 250.096C335.656 250.096 315.996 269.769 315.996 294.038C315.996 318.306 335.656 337.98 359.909 337.98Z" fill="#3F3D56"/>
<path d="M359.909 323.332C376.077 323.332 389.184 310.217 389.184 294.038C389.184 277.859 376.077 264.743 359.909 264.743C343.741 264.743 330.633 277.859 330.633 294.038C330.633 310.217 343.741 323.332 359.909 323.332Z" fill="white"/>
<path d="M359.909 310.719C369.116 310.719 376.58 303.251 376.58 294.038C376.58 284.825 369.116 277.356 359.909 277.356C350.702 277.356 343.238 284.825 343.238 294.038C343.238 303.251 350.702 310.719 359.909 310.719Z" fill="#3F3D56"/>
<path d="M106.188 337.98C130.441 337.98 150.101 318.306 150.101 294.038C150.101 269.769 130.441 250.096 106.188 250.096C81.9354 250.096 62.2748 269.769 62.2748 294.038C62.2748 318.306 81.9354 337.98 106.188 337.98Z" fill="#3F3D56"/>
<path d="M106.188 323.332C122.356 323.332 135.464 310.217 135.464 294.038C135.464 277.859 122.356 264.743 106.188 264.743C90.0196 264.743 76.9125 277.859 76.9125 294.038C76.9125 310.217 90.0196 323.332 106.188 323.332Z" fill="white"/>
<path d="M419.982 273.139C414.262 258.714 394.273 214.633 358.678 200.045C358.404 199.933 358.116 199.856 357.823 199.814L243.644 183.448C241.763 183.179 240.012 184.467 239.708 186.344L237.706 198.712C237.568 199.561 237.747 200.43 238.213 201.153C244.012 210.156 281.174 271.253 221.664 271.253C163.088 271.253 145.751 228.634 143.148 221.114C142.902 220.404 142.892 219.639 143.119 218.922L161.159 161.757C161.48 160.74 161.303 159.698 160.784 158.866L168.715 144.127L183.241 152.356L190.762 152.447L216.435 165.874L221.664 157.33L168.715 130.902C168.715 130.902 168.805 124.78 151.728 119.898L124.892 107.692L121.639 111.76L129.771 118.27L130.584 123.153L136.277 124.78L147.662 146.751L144.409 153.046L148.357 154.973L147.223 154.715C145.59 154.343 143.924 155.186 143.255 156.722L125.313 197.865C125.038 198.494 124.584 199.029 124.007 199.401L117.616 203.527C117.019 203.913 116.554 204.472 116.283 205.129L108.983 222.847C108.756 223.399 108.691 223.978 108.75 224.538C99.6498 226.263 72.8998 233.714 58.2087 263.116L75.2861 276.949C75.2861 276.949 102.055 259.618 146.297 277.666C153.986 289.643 165.205 299.582 181.401 300.519C224.103 302.989 294.852 305.43 302.984 295.665C308.938 288.516 313.079 284.053 314.871 282.175C315.502 281.513 316.364 281.13 317.278 281.101L416.854 277.918C419.271 277.841 420.874 275.388 419.982 273.139Z" fill="#8887FF"/>
<path d="M145.222 145.124C152.408 145.124 158.233 139.294 158.233 132.104C158.233 124.913 152.408 119.084 145.222 119.084C138.036 119.084 132.211 124.913 132.211 132.104C132.211 139.294 138.036 145.124 145.222 145.124Z" fill="#3F3D56"/>
<path d="M353.594 200.095C353.44 200.095 353.285 200.092 353.129 200.086L244.34 195.872C239.526 195.685 235.402 192.619 233.835 188.06L232.346 183.723C231.131 180.188 231.66 176.401 233.795 173.333C235.93 170.265 239.297 168.457 243.032 168.37L355.431 165.785C358.911 165.705 362.262 167.196 364.534 169.88C366.805 172.564 367.731 176.084 367.074 179.539L364.954 190.674C363.903 196.198 359.165 200.095 353.594 200.095Z" fill="#3F3D56"/>
<path d="M106.188 310.719C115.395 310.719 122.859 303.251 122.859 294.038C122.859 284.825 115.395 277.356 106.188 277.356C96.981 277.356 89.5173 284.825 89.5173 294.038C89.5173 303.251 96.981 310.719 106.188 310.719Z" fill="#3F3D56"/>
<path d="M397.299 246.545C394.695 246.545 392.216 245.15 390.894 242.757L382.653 227.833C381.347 225.469 381.422 222.691 382.852 220.401C384.282 218.11 386.753 216.817 389.441 216.965L404.392 217.731C407.177 217.874 409.678 219.627 410.765 222.197L415.135 232.53C415.934 234.422 415.914 236.496 415.079 238.372C414.244 240.247 412.715 241.649 410.775 242.319L399.696 246.142C398.905 246.415 398.096 246.545 397.299 246.545Z" fill="#3F3D56"/>
<path d="M208.188 345.732C208.065 345.732 207.94 345.724 207.814 345.711L204.494 345.341C203.409 345.221 202.471 344.611 201.918 343.669C201.365 342.727 201.291 341.609 201.715 340.602L218.985 299.558C219.459 298.431 220.507 297.638 221.718 297.486C222.898 297.336 224.048 297.8 224.798 298.72C225.549 299.639 225.77 300.86 225.391 301.985L211.441 343.398C210.971 344.796 209.639 345.732 208.188 345.732Z" fill="#3F3D56"/>
<path d="M297.858 59.3069C297.858 59.3069 291.54 46.6621 292.804 35.2817L271.775 46.1886L272.585 66.8938L297.858 59.3069Z" fill="#A0616A"/>
<path d="M284.808 52.0286C295.285 52.0286 303.778 43.5302 303.778 33.0469C303.778 22.5636 295.285 14.0652 284.808 14.0652C274.332 14.0652 265.839 22.5636 265.839 33.0469C265.839 43.5302 274.332 52.0286 284.808 52.0286Z" fill="#A0616A"/>
<path d="M304.185 331.133L292.61 331.131L287.103 286.454L304.188 286.455L304.185 331.133Z" fill="#A0616A"/>
<path d="M264.527 330.87C264.166 331.477 263.976 333.438 263.976 334.144C263.976 336.315 265.735 338.075 267.905 338.075H303.752C305.233 338.075 306.433 336.874 306.433 335.393V333.9C306.433 333.9 308.206 329.411 304.555 323.879C304.555 323.879 300.017 328.211 293.237 321.426L291.237 317.801L276.763 328.394L268.741 329.382C266.986 329.598 265.429 329.348 264.527 330.87Z" fill="#2F2E41"/>
<path d="M270.058 59.3069L297.858 55.5134L319.34 65.6293L320.604 144.027C320.604 144.027 267.759 150.35 259.431 142.13C251.103 133.911 257.421 68.1582 257.421 68.1582L270.058 59.3069Z" fill="#E6E6E6"/>
<path d="M280.064 37.8827H274.964C274.964 37.8827 270.539 32.4327 271.135 35.7533C271.73 39.074 269.349 42.6478 269.349 42.6478L265.777 41.4565C265.777 41.4565 258.634 11.4021 280.064 9.75118C301.493 8.10025 306.255 24.7784 306.255 24.7784C306.255 24.7784 305.065 33.1175 302.683 30.7349C300.302 28.3523 287.207 27.161 287.207 27.161L280.064 37.8827Z" fill="#2F2E41"/>
<path d="M266.573 321.092L255.433 324.238L238.002 282.738L254.444 278.094L266.573 321.092Z" fill="#A0616A"/>
<path d="M228.335 331.621C228.153 332.304 228.502 334.242 228.694 334.922C229.284 337.011 231.455 338.227 233.543 337.637L268.042 327.891C269.466 327.488 270.295 326.007 269.893 324.581L269.487 323.144C269.487 323.144 269.975 318.342 264.959 314.01C264.959 314.01 261.769 319.413 253.401 314.727L250.492 311.782L239.439 325.911L231.987 329.043C230.356 329.729 228.791 329.911 228.335 331.621Z" fill="#2F2E41"/>
<path d="M316.813 136.44L320.604 147.91V187.338L309.231 306.339H287.013L284.505 221.39L286.485 179.433L244.111 243.585L262.737 289.404L242.24 303.085C242.24 303.085 211.584 233.175 216.171 226.402C220.758 219.629 261.844 139.666 261.844 139.666C261.844 139.666 316.813 137.705 316.813 136.44Z" fill="#2F2E41"/>
<path d="M328.186 90.919L334.295 100.931C334.295 100.931 342.932 134.9 334.295 135.038C325.659 135.176 308.221 117.727 308.221 117.727L310.495 108.622L316.813 111.151L315.549 90.9189L328.186 90.919Z" fill="#A0616A"/>
<path d="M309.231 65.47C309.231 65.47 329.45 61.9055 331.345 75.1477C333.241 88.39 334.295 100.931 334.295 100.931L312.39 102.747L309.231 65.47Z" fill="#E6E6E6"/>
<path d="M313.616 116.617C315.444 114.048 312.765 109 307.633 105.341C302.501 101.682 296.859 100.797 295.032 103.366C293.204 105.934 295.883 110.983 301.015 114.642C306.147 118.301 311.789 119.185 313.616 116.617Z" fill="#A0616A"/>
<path d="M480.184 249.645C477.613 249.922 474.809 250.337 471.826 250.945C459.179 253.522 458.916 262.115 459.027 264.086L458.941 264.032C457.669 266.073 456.873 268.139 456.392 270.089L455.812 243.751C456.187 242.97 456.528 242.084 456.812 241.176C457.758 244.093 459.31 246.849 460.648 246.666C462.388 246.429 463.146 241.307 462.822 237.667C465.034 240.518 468.756 243.567 470.161 242.627C471.283 241.875 470.618 238.783 469.392 235.971C471.945 237.51 474.773 238.522 475.65 237.545C476.847 236.211 473.978 231.661 471.333 229.12C474.874 229.451 479.378 228.886 479.674 227.273C479.917 225.945 477.236 224.268 474.367 223.188C477.249 222.428 479.944 221.103 479.855 219.792C479.748 218.235 475.747 217.192 472.296 217.033C474.899 214.995 477.291 212.178 476.56 210.904C475.887 209.732 472.758 210.186 469.872 211.218C471.58 208.774 472.781 206.02 471.866 205.078C470.727 203.904 466.683 205.93 463.924 208.17C464.461 204.68 464.189 200.276 462.625 199.877C461.317 199.544 459.463 202.106 458.191 204.897C457.629 201.968 456.492 199.188 455.179 199.188C453.309 199.188 451.793 204.83 451.793 208.506C451.793 208.714 451.798 208.909 451.808 209.096C451.62 208.879 451.405 208.651 451.159 208.413C448.524 205.852 443.423 203.009 442.12 204.351C441.205 205.294 442.406 208.048 444.114 210.492C441.228 209.46 438.099 209.006 437.426 210.177C436.523 211.752 440.385 215.681 443.525 217.587C443.337 217.564 443.138 217.545 442.927 217.53C439.262 217.28 433.533 218.409 433.406 220.277C433.316 221.587 436.011 222.912 438.893 223.672C436.024 224.752 433.344 226.429 433.587 227.758C433.882 229.37 438.386 229.935 441.928 229.605C439.282 232.145 436.413 236.695 437.61 238.029C438.488 239.006 441.315 237.994 443.868 236.455C442.643 239.267 441.977 242.36 443.1 243.111C444.583 244.103 448.65 240.648 450.795 237.675C450.576 241.312 451.446 246.309 453.171 246.506C453.893 246.589 454.658 245.819 455.348 244.633L453.393 272.943C452.936 276.24 455.859 278.391 456.12 279.749L456.542 298.92C456.066 297.555 455.425 296.158 454.561 294.771L454.475 294.825C454.586 292.854 454.323 284.261 441.676 281.684C438.693 281.076 435.889 280.661 433.319 280.384C430.285 280.057 429.101 284.214 431.842 285.556C435.812 287.5 439.546 289.95 441.492 292.85C446.468 300.266 453.344 295.98 454.321 295.314C455.413 297.133 456.129 298.965 456.581 300.709L456.805 310.89C456.75 311.13 456.712 311.265 456.709 311.275L456.814 311.306L457.356 335.945L462.382 335.905L460.584 310.72C460.886 309.361 461.816 304.733 460.584 299.927L458.787 280.139C458.782 280.123 458.889 280.658 458.787 280.139L456.441 272.363C456.782 269.958 457.574 267.252 459.181 264.575C460.159 265.241 467.034 269.527 472.01 262.111C473.956 259.211 477.691 256.761 481.66 254.817C484.401 253.475 483.218 249.318 480.184 249.645ZM457.224 307.94L457.129 303.631C457.32 305.26 457.311 306.731 457.224 307.94Z" fill="#F2F2F2"/>
<path d="M421.659 332.879L430.395 330.989L427.27 296.368L414.376 299.157L421.659 332.879Z" fill="#A0616A"/>
<path d="M451.55 326.209C451.921 326.608 452.384 328.057 452.499 328.59C452.853 330.229 451.812 331.844 450.174 332.199L423.117 338.048C422 338.29 420.898 337.579 420.657 336.461L420.413 335.334C420.413 335.334 418.343 332.236 420.198 327.464C420.198 327.464 424.328 329.993 428.341 323.766L429.259 320.704L441.91 326.337L448.126 325.773C449.486 325.65 450.62 325.208 451.55 326.209Z" fill="#2F2E41"/>
<path d="M437.286 330.23L444.575 325.053L428.089 294.455L417.331 302.096L437.286 330.23Z" fill="#A0616A"/>
<path d="M462.143 312.329C462.641 312.55 463.637 313.7 463.952 314.145C464.922 315.512 464.6 317.407 463.234 318.377L440.66 334.408C439.727 335.07 438.436 334.851 437.774 333.918L437.107 332.978C437.107 332.978 433.986 330.944 433.814 325.828C433.814 325.828 438.606 326.526 439.846 319.221L439.486 316.044L453.331 316.242L458.825 313.277C460.027 312.628 460.895 311.774 462.143 312.329Z" fill="#2F2E41"/>
<path d="M332.281 159.064C332.281 159.064 318.689 177.556 345.873 198.346L401.375 180.599L381.553 139.229L363.996 129.595L332.281 159.064Z" fill="#2F2E41"/>
<path d="M401.375 180.599L422.896 222.536L436.489 309.811L419.498 310.944L402.508 228.204L372.491 183.433L393.446 173.799" fill="#2F2E41"/>
<path d="M345.873 185.173V198.346L384.385 240.671C384.385 240.671 384.385 272.407 399.11 287.142L416.1 313.211L430.825 305.277L409.304 229.337L370.792 179.466L345.873 185.173Z" fill="#2F2E41"/>
<path d="M373.24 54.578L365.985 82.2552L338.326 76.8105C338.326 76.8105 357.625 56.899 354.905 47.8245L373.24 54.578Z" fill="#A0616A"/>
<path d="M352.103 58.7556L369.093 66.6896C369.093 66.6896 377.834 72.0355 377.994 75.5965C378.155 79.1574 377.022 96.1589 377.022 96.1589C377.022 96.1589 383.818 102.959 379.288 116.561L381.553 139.229L330.582 166.432L335.113 118.828L332.847 74.6237L352.103 58.7556Z" fill="#3F3D56"/>
<path d="M336.852 187.742C338.841 192.309 342.809 194.984 345.713 193.717C348.618 192.45 349.359 187.72 347.368 183.152C346.598 181.316 345.4 179.691 343.874 178.414L335.201 159.169L326.262 163.434L335.761 181.953C335.658 183.942 336.032 185.927 336.852 187.742Z" fill="#A0616A"/>
<path d="M345.873 77.4571C345.873 77.4571 333.414 69.5231 328.883 78.5905C324.352 87.658 314.158 134.129 314.158 134.129L328.883 178.333L342.475 172.665L330.582 125.092L345.873 77.4571Z" fill="#3F3D56"/>
<path d="M409.731 180.607C413.262 184.12 417.936 185.144 420.169 182.895C422.403 180.646 421.351 175.976 417.818 172.463C416.426 171.04 414.714 169.971 412.825 169.346L397.677 154.652L390.937 161.912L406.586 175.627C407.222 177.515 408.301 179.222 409.731 180.607Z" fill="#A0616A"/>
<path d="M377.515 74.7533C377.515 74.7533 355.793 73.8644 354.919 83.9643C354.045 94.0643 368.895 139.131 368.895 139.131L398.859 174.797L409.408 164.518L380.837 124.675L377.515 74.7533Z" fill="#3F3D56"/>
<path d="M313.912 156.577L295.768 101.464C281.099 88.5297 265.186 119.672 222.468 102.019L235.904 164.36C268.202 146.889 296.003 140.046 313.912 156.577Z" fill="white"/>
<path d="M235.904 165.986C235.788 165.986 235.672 165.961 235.564 165.911C235.331 165.804 235.163 165.594 235.109 165.344L221.673 103.002C221.609 102.706 221.714 102.4 221.947 102.206C222.179 102.012 222.499 101.963 222.778 102.078C247.046 112.107 262.71 106.136 274.144 101.776C282.839 98.4613 289.704 95.8457 296.305 101.665C296.414 101.761 296.495 101.884 296.54 102.021L314.685 157.134C314.801 157.486 314.664 157.873 314.352 158.073C314.041 158.273 313.632 158.238 313.361 157.987C297.615 143.453 273.125 145.962 236.291 165.888C236.17 165.953 236.037 165.986 235.904 165.986ZM223.586 104.159L236.471 163.943C271.814 145.003 296.02 142.084 312.231 154.882L295.066 102.743C289.25 97.7597 283.145 100.087 274.724 103.297C263.257 107.668 247.638 113.624 223.586 104.159Z" fill="#3F3D56"/>
<path d="M250.605 75.2073L239.125 77.5848C239.125 77.5848 208.437 94.4836 214.237 100.888C220.038 107.293 244.685 108.111 244.685 108.111L249.775 100.229L243.613 97.3405L259.239 84.4401L250.605 75.2073Z" fill="#A0616A"/>
<path d="M282.126 71.6682C282.126 71.6682 270.912 54.4602 259.954 62.1232C248.997 69.7862 239.125 77.5847 239.125 77.5847L252.766 94.8303L282.126 71.6682Z" fill="#E6E6E6"/>
<path d="M264.175 107.936C264.8 104.845 260.299 101.326 254.123 100.075C247.947 98.8245 242.434 100.316 241.809 103.406C241.184 106.496 245.684 110.015 251.86 111.266C258.036 112.517 263.549 111.026 264.175 107.936Z" fill="#A0616A"/>
<path d="M476.237 343.344C480.027 343.344 483.099 340.27 483.099 336.478C483.099 332.686 480.027 329.611 476.237 329.611C472.447 329.611 469.375 332.686 469.375 336.478C469.375 340.27 472.447 343.344 476.237 343.344Z" fill="#3F3D56"/>
<path d="M485.386 354C489.176 354 492.248 350.926 492.248 347.134C492.248 343.342 489.176 340.267 485.386 340.267C481.596 340.267 478.524 343.342 478.524 347.134C478.524 350.926 481.596 354 485.386 354Z" fill="#3F3D56"/>
<path d="M554.005 354C557.795 354 560.867 350.926 560.867 347.134C560.867 343.342 557.795 340.267 554.005 340.267C550.215 340.267 547.143 343.342 547.143 347.134C547.143 350.926 550.215 354 554.005 354Z" fill="#3F3D56"/>
<path d="M495.437 244.353V169.776C495.437 161.427 502.415 159.364 510.759 159.364C514.848 159.364 516.837 158.888 519.704 161.805C522.572 164.722 525.767 165.933 525.7 170.025L524.499 243.204L495.437 244.353ZM511.572 164.246C504.125 164.246 497.064 162.324 497.064 169.776V242.661L522.898 241.639L524.073 169.998C524.133 166.347 518.197 166.85 515.638 164.246C513.079 161.643 515.222 164.246 511.572 164.246Z" fill="#3F3D56"/>
<path d="M475.014 243.456L473.97 324.936C473.957 325.985 474.207 327.02 474.697 327.947L482.39 342.487C483.521 344.626 485.782 345.921 488.198 345.815L555.747 342.833C559.205 342.68 561.883 339.749 561.725 336.289L557.492 243.251C557.34 239.906 554.585 237.272 551.238 237.272H481.274C477.848 237.272 475.058 240.028 475.014 243.456Z" fill="#E6E6E6"/>
<path d="M501.637 280.227L500.013 280.146L500.616 268.086C500.94 261.591 506.284 256.385 512.782 256.233L541.548 255.564C547.358 255.462 552.167 259.873 552.489 265.682L553.101 276.708L551.477 276.799L550.865 265.772C550.592 260.845 546.485 257.072 541.587 257.191L512.82 257.861C507.17 257.992 502.522 262.52 502.24 268.167L501.637 280.227Z" fill="#3F3D56"/>
<path d="M500.491 338.634L498.873 338.468L502.381 304.24C503.03 297.91 508.309 292.923 514.66 292.638L542.716 291.38C546.251 291.22 549.609 292.472 552.178 294.905C554.747 297.337 556.183 300.625 556.22 304.163L556.534 333.964L554.907 333.982L554.594 304.181C554.561 301.087 553.306 298.213 551.06 296.087C548.815 293.961 545.867 292.865 542.789 293.005L514.733 294.264C509.181 294.513 504.566 298.872 503.999 304.405L500.491 338.634Z" fill="#3F3D56"/>
<path d="M487.915 336.272L486.288 336.252L487.317 258.035C487.387 252.686 491.628 248.374 496.971 248.216L552.266 246.586L552.313 248.214L497.018 249.844C492.549 249.975 489.002 253.583 488.943 258.056L487.915 336.272Z" fill="#3F3D56"/>
<path d="M488.06 325.126H486.93V253.892C486.93 251.638 485.1 249.799 482.84 249.799H476.521V248.171H482.84C485.824 248.171 488.28 250.474 488.532 253.387C488.548 253.55 488.557 253.721 488.557 253.892V287.621L488.06 325.126Z" fill="#3F3D56"/>
<path d="M385.046 39.7805C385.046 50.2094 376.598 58.6636 366.175 58.6636C355.753 58.6636 347.305 50.2094 347.305 39.7805C347.305 29.3517 355.753 20.8975 366.175 20.8975C376.598 20.8975 385.046 29.3517 385.046 39.7805Z" fill="#A0616A"/>
<path d="M364.669 14.3937C365.215 14.7126 365.947 14.2301 366.122 13.6221C366.297 13.0142 366.093 12.3687 365.891 11.7693C365.551 10.7634 365.212 9.75749 364.873 8.7516C364.151 6.6114 363.384 4.39642 361.82 2.76746C359.46 0.308795 355.708 -0.316677 352.331 0.136453C347.995 0.718366 343.716 3.06817 341.699 6.95389C339.683 10.8396 340.541 16.2616 344.185 18.6859C338.992 24.6417 337.182 31.2792 337.468 39.178C337.754 47.0768 346.356 54.3463 351.966 59.9107C353.218 59.1508 354.357 55.5896 353.668 54.2958C352.979 53.0021 353.966 51.5033 353.113 50.3117C352.26 49.12 351.546 51.0175 352.409 49.8326C352.953 49.0849 350.829 47.3648 351.638 46.9173C355.551 44.7528 356.852 39.872 359.31 36.1344C362.275 31.6262 367.348 28.5731 372.718 28.0666C375.676 27.7876 378.8 28.293 381.224 30.0112C383.648 31.7295 385.218 34.8 384.656 37.7191C386.112 36.2398 386.836 34.0719 386.563 32.0137C386.29 29.9555 385.024 28.0522 383.233 27.0048C384.322 23.4 383.389 19.2535 380.86 16.464C378.332 13.6745 368.075 14.1496 364.384 14.8837L364.669 14.3937Z" fill="#2F2E41"/>
<path d="M364.096 28.176C359.207 28.7041 355.677 32.9419 352.696 36.8555C350.978 39.1112 349.178 41.6022 349.222 44.438C349.265 47.3051 351.181 49.7643 352.096 52.4814C353.593 56.9227 352.134 62.2067 348.572 65.2498C352.092 65.9182 355.897 63.2773 356.505 59.7441C357.212 55.6311 354.096 51.6614 354.465 47.5042C354.791 43.8417 357.675 41.023 360.127 38.2846C362.579 35.5462 364.882 31.9123 363.754 28.413L364.096 28.176Z" fill="#2F2E41"/>
</g>
<defs>
<clipPath id="clip0_344_633">
<rect width="595" height="354" fill="white"/>
</clipPath>
</defs>
</svg>
