<svg width="568" height="354" viewBox="0 0 568 354" fill="none" xmlns="http://www.w3.org/2000/svg">
<g clip-path="url(#clip0_275_1584)">
<path d="M53.5623 342.753C56.0755 346.141 59.191 349.036 62.753 351.295C63.5105 351.775 64.2882 352.228 65.0794 352.647H83.6975C83.4746 352.201 83.258 351.748 83.0483 351.295C77.2756 339.113 75.4654 325.429 77.8721 312.166C80.2789 298.902 86.7816 286.726 96.4661 277.349C85.2126 280.825 74.8113 287.602 68.0078 297.212C64.702 301.892 62.351 307.178 61.0893 312.767C59.965 301.589 61.7519 290.31 66.2764 280.027C57.1399 287.46 50.025 297.638 47.3132 309.094C44.6015 320.558 46.5693 333.279 53.5623 342.753Z" fill="#F0F0F0"/>
<path d="M565.003 190.03H438.422C437.642 190.029 436.894 189.719 436.342 189.167C435.79 188.615 435.479 187.867 435.479 187.086V108.783C435.479 108.003 435.79 107.254 436.342 106.703C436.894 106.151 437.642 105.84 438.422 105.839H565.003C565.783 105.84 566.531 106.151 567.083 106.703C567.635 107.254 567.945 108.003 567.946 108.783V187.086C567.945 187.867 567.635 188.615 567.083 189.167C566.531 189.719 565.783 190.029 565.003 190.03Z" fill="white"/>
<path d="M565.003 190.03H438.422C437.642 190.029 436.894 189.719 436.342 189.167C435.79 188.615 435.479 187.867 435.479 187.086V108.783C435.479 108.003 435.79 107.254 436.342 106.703C436.894 106.151 437.642 105.84 438.422 105.839H565.003C565.783 105.84 566.531 106.151 567.083 106.703C567.635 107.254 567.945 108.003 567.946 108.783V187.086C567.945 187.867 567.635 188.615 567.083 189.167C566.531 189.719 565.783 190.029 565.003 190.03ZM438.422 107.017C437.954 107.017 437.505 107.204 437.174 107.535C436.843 107.866 436.657 108.315 436.656 108.783V187.086C436.657 187.554 436.843 188.003 437.174 188.335C437.505 188.666 437.954 188.852 438.422 188.852H565.003C565.471 188.852 565.92 188.666 566.251 188.335C566.582 188.003 566.768 187.554 566.769 187.086V108.783C566.768 108.315 566.582 107.866 566.251 107.535C565.92 107.204 565.471 107.017 565.003 107.017H438.422Z" fill="#3F3D56"/>
<path d="M539.981 131.99H463.444C462.741 131.99 462.068 131.711 461.571 131.214C461.074 130.718 460.795 130.044 460.795 129.341C460.795 128.638 461.074 127.964 461.571 127.468C462.068 126.971 462.741 126.692 463.444 126.692H539.981C540.684 126.692 541.357 126.971 541.854 127.468C542.351 127.964 542.63 128.638 542.63 129.341C542.63 130.044 542.351 130.718 541.854 131.214C541.357 131.711 540.684 131.99 539.981 131.99Z" fill="#CCCCCC"/>
<path d="M539.981 150.242H463.444C462.741 150.242 462.068 149.962 461.571 149.466C461.074 148.969 460.795 148.295 460.795 147.592C460.795 146.89 461.074 146.216 461.571 145.719C462.068 145.222 462.741 144.943 463.444 144.943H539.981C540.684 144.943 541.357 145.222 541.854 145.719C542.351 146.216 542.63 146.89 542.63 147.592C542.63 148.295 542.351 148.969 541.854 149.466C541.357 149.962 540.684 150.242 539.981 150.242Z" fill="#CCCCCC"/>
<path d="M533.162 179.179C538.391 179.179 542.63 174.94 542.63 169.711C542.63 164.482 538.391 160.243 533.162 160.243C527.933 160.243 523.694 164.482 523.694 169.711C523.694 174.94 527.933 179.179 533.162 179.179Z" fill="#6C63FF"/>
<path d="M533.422 165.251V164.349H533.689V165.251C534.067 165.267 534.438 165.358 534.781 165.518C535.03 165.635 535.245 165.813 535.404 166.037C535.552 166.244 535.631 166.492 535.63 166.746C535.635 166.932 535.573 167.113 535.455 167.257C535.404 167.322 535.338 167.374 535.264 167.41C535.189 167.446 535.107 167.465 535.025 167.464C534.963 167.465 534.901 167.454 534.844 167.431C534.787 167.407 534.735 167.372 534.692 167.328C534.648 167.284 534.612 167.231 534.589 167.173C534.565 167.115 534.554 167.052 534.556 166.99C534.556 166.902 534.574 166.815 534.609 166.734L534.716 166.509C534.754 166.415 534.772 166.314 534.769 166.212C534.772 166.055 534.722 165.901 534.627 165.776C534.523 165.645 534.383 165.547 534.223 165.494C534.05 165.437 533.871 165.401 533.689 165.387V168.633L533.749 168.669C534.306 168.964 534.813 169.347 535.25 169.802C535.444 170.031 535.597 170.291 535.704 170.571C535.811 170.842 535.866 171.131 535.867 171.423C535.872 171.8 535.774 172.171 535.582 172.497C535.396 172.814 535.122 173.072 534.793 173.239C534.447 173.408 534.073 173.517 533.689 173.559V174.526H533.422V173.577C533.035 173.574 532.652 173.495 532.295 173.345C531.938 173.213 531.624 172.987 531.384 172.693C531.172 172.428 531.058 172.099 531.06 171.761C531.053 171.523 531.126 171.29 531.268 171.099C531.324 171.017 531.399 170.949 531.487 170.902C531.575 170.855 531.673 170.83 531.772 170.829C531.832 170.827 531.892 170.837 531.947 170.859C532.003 170.881 532.053 170.914 532.096 170.956C532.138 170.998 532.171 171.049 532.193 171.104C532.215 171.16 532.225 171.22 532.224 171.279C532.203 171.462 532.127 171.634 532.004 171.771C531.94 171.855 531.885 171.947 531.841 172.043C531.81 172.118 531.795 172.199 531.796 172.28C531.797 172.496 531.872 172.706 532.007 172.875C532.155 173.064 532.35 173.21 532.574 173.298C532.829 173.398 533.101 173.446 533.375 173.44H533.422V169.565L533.084 169.369C532.764 169.183 532.519 169.029 532.351 168.906C532.187 168.787 532.035 168.652 531.897 168.503C531.556 168.14 531.367 167.66 531.369 167.162C531.367 166.851 531.445 166.546 531.594 166.274C531.741 166.003 531.956 165.775 532.218 165.613C532.582 165.393 532.997 165.268 533.422 165.251ZM533.422 165.381C533.192 165.388 532.966 165.439 532.755 165.529C532.543 165.634 532.37 165.802 532.258 166.009C532.131 166.235 532.066 166.49 532.069 166.749C532.067 167.065 532.164 167.374 532.347 167.632C532.444 167.772 532.56 167.898 532.692 168.005C532.907 168.165 533.131 168.311 533.363 168.444L533.422 168.479V165.381ZM533.689 173.428C533.842 173.416 533.993 173.384 534.138 173.334C534.256 173.288 534.366 173.224 534.463 173.144C534.646 172.988 534.788 172.789 534.877 172.565C534.98 172.318 535.032 172.052 535.031 171.785C535.007 171.355 534.871 170.939 534.635 170.578C534.4 170.218 534.073 169.926 533.689 169.731V173.428Z" fill="white"/>
<path d="M478.776 137.618H352.195C351.415 137.617 350.667 137.306 350.115 136.754C349.563 136.203 349.252 135.454 349.252 134.674V56.3707C349.252 55.5903 349.563 54.8421 350.115 54.2902C350.667 53.7383 351.415 53.4279 352.195 53.427H478.776C479.556 53.4279 480.304 53.7383 480.856 54.2902C481.408 54.8421 481.718 55.5903 481.719 56.3707V134.674C481.718 135.454 481.408 136.203 480.856 136.754C480.304 137.306 479.556 137.617 478.776 137.618Z" fill="white"/>
<path d="M478.776 137.618H352.195C351.415 137.617 350.667 137.306 350.115 136.754C349.563 136.203 349.252 135.454 349.252 134.674V56.3707C349.252 55.5903 349.563 54.8421 350.115 54.2902C350.667 53.7383 351.415 53.4279 352.195 53.427H478.776C479.556 53.4279 480.304 53.7383 480.856 54.2902C481.408 54.8421 481.718 55.5903 481.719 56.3707V134.674C481.718 135.454 481.408 136.203 480.856 136.754C480.304 137.306 479.556 137.617 478.776 137.618ZM352.195 54.6045C351.727 54.605 351.278 54.7912 350.947 55.1224C350.616 55.4535 350.43 55.9024 350.429 56.3707V134.674C350.43 135.142 350.616 135.591 350.947 135.922C351.278 136.253 351.727 136.44 352.195 136.44H478.776C479.244 136.44 479.693 136.253 480.024 135.922C480.355 135.591 480.541 135.142 480.542 134.674V56.3707C480.541 55.9024 480.355 55.4535 480.024 55.1224C479.693 54.7912 479.244 54.605 478.776 54.6045H352.195Z" fill="#3F3D56"/>
<path d="M453.754 79.578H377.217C376.514 79.578 375.84 79.2989 375.344 78.802C374.847 78.3052 374.568 77.6313 374.568 76.9287C374.568 76.226 374.847 75.5521 375.344 75.0553C375.84 74.5584 376.514 74.2793 377.217 74.2793H453.754C454.457 74.2793 455.13 74.5584 455.627 75.0553C456.124 75.5521 456.403 76.226 456.403 76.9287C456.403 77.6313 456.124 78.3052 455.627 78.802C455.13 79.2989 454.457 79.578 453.754 79.578Z" fill="#CCCCCC"/>
<path d="M453.754 97.829H377.217C376.514 97.829 375.84 97.5499 375.344 97.053C374.847 96.5562 374.568 95.8823 374.568 95.1796C374.568 94.477 374.847 93.8031 375.344 93.3063C375.84 92.8094 376.514 92.5303 377.217 92.5303H453.754C454.457 92.5303 455.13 92.8094 455.627 93.3063C456.124 93.8031 456.403 94.477 456.403 95.1796C456.403 95.8823 456.124 96.5562 455.627 97.053C455.13 97.5499 454.457 97.829 453.754 97.829Z" fill="#CCCCCC"/>
<path d="M446.935 126.767C452.164 126.767 456.403 122.528 456.403 117.299C456.403 112.07 452.164 107.831 446.935 107.831C441.706 107.831 437.467 112.07 437.467 117.299C437.467 122.528 441.706 126.767 446.935 126.767Z" fill="#6C63FF"/>
<path d="M447.195 112.838V111.936H447.462V112.838C447.84 112.855 448.211 112.945 448.554 113.105C448.803 113.222 449.018 113.401 449.177 113.625C449.325 113.832 449.404 114.08 449.403 114.334C449.409 114.52 449.346 114.701 449.228 114.844C449.177 114.909 449.111 114.962 449.037 114.998C448.962 115.034 448.88 115.053 448.798 115.052C448.736 115.053 448.674 115.042 448.617 115.018C448.56 114.995 448.508 114.96 448.465 114.915C448.421 114.871 448.385 114.819 448.362 114.76C448.339 114.702 448.327 114.64 448.329 114.577C448.329 114.489 448.347 114.403 448.382 114.322L448.489 114.096C448.527 114.002 448.545 113.901 448.543 113.8C448.545 113.643 448.495 113.489 448.4 113.364C448.296 113.232 448.156 113.134 447.997 113.082C447.823 113.025 447.644 112.989 447.462 112.975V116.221L447.522 116.257C448.08 116.552 448.586 116.935 449.023 117.39C449.217 117.619 449.37 117.879 449.477 118.159C449.584 118.43 449.639 118.719 449.64 119.01C449.645 119.388 449.547 119.759 449.356 120.084C449.169 120.402 448.895 120.659 448.566 120.826C448.22 120.996 447.846 121.105 447.462 121.147V122.114H447.195V121.164C446.808 121.161 446.425 121.083 446.068 120.933C445.711 120.801 445.397 120.575 445.157 120.28C444.946 120.016 444.831 119.687 444.833 119.349C444.826 119.111 444.899 118.878 445.041 118.687C445.097 118.604 445.172 118.537 445.26 118.49C445.348 118.443 445.446 118.418 445.546 118.417C445.605 118.415 445.665 118.425 445.72 118.447C445.776 118.469 445.827 118.502 445.869 118.544C445.911 118.586 445.944 118.637 445.966 118.692C445.988 118.748 445.999 118.807 445.997 118.867C445.976 119.05 445.9 119.221 445.777 119.358C445.713 119.443 445.658 119.534 445.614 119.631C445.583 119.706 445.568 119.786 445.569 119.868C445.57 120.084 445.645 120.294 445.78 120.462C445.928 120.652 446.123 120.798 446.347 120.886C446.602 120.985 446.874 121.034 447.148 121.028H447.195V117.153L446.857 116.957C446.537 116.771 446.292 116.617 446.124 116.494C445.96 116.375 445.808 116.24 445.67 116.09C445.329 115.727 445.14 115.247 445.142 114.749C445.14 114.439 445.218 114.134 445.367 113.862C445.514 113.591 445.729 113.363 445.991 113.2C446.355 112.98 446.77 112.856 447.195 112.838ZM447.195 112.969C446.965 112.976 446.739 113.026 446.528 113.117C446.317 113.222 446.143 113.389 446.031 113.597C445.904 113.823 445.839 114.078 445.842 114.337C445.84 114.653 445.937 114.962 446.12 115.22C446.217 115.36 446.333 115.486 446.466 115.593C446.68 115.753 446.904 115.899 447.136 116.031L447.195 116.067V112.969ZM447.462 121.016C447.615 121.003 447.766 120.971 447.911 120.921C448.029 120.876 448.139 120.812 448.236 120.731C448.42 120.575 448.562 120.377 448.65 120.153C448.753 119.906 448.805 119.64 448.804 119.372C448.78 118.942 448.644 118.526 448.408 118.166C448.173 117.805 447.847 117.513 447.462 117.319V121.016Z" fill="white"/>
<path d="M216.376 125.933C215.273 125.854 214.166 126.017 213.133 126.411C212.1 126.806 211.166 127.422 210.397 128.216C209.628 129.01 209.043 129.963 208.682 131.009C208.321 132.054 208.194 133.165 208.309 134.265L183.974 145.673L195.885 152.966L217.168 141.015C219.002 140.699 220.657 139.721 221.819 138.266C222.98 136.811 223.568 134.981 223.47 133.122C223.373 131.263 222.597 129.505 221.289 128.18C219.982 126.855 218.233 126.056 216.376 125.933Z" fill="#FFB6B6"/>
<path d="M115.679 345.429L124.083 345.428L128.081 313.012L115.677 313.013L115.679 345.429Z" fill="#FFB6B6"/>
<path d="M113.535 342.685L130.086 342.684H130.087C132.884 342.684 135.567 343.795 137.545 345.773C139.522 347.751 140.634 350.434 140.634 353.231V353.574L113.536 353.575L113.535 342.685Z" fill="#2F2E41"/>
<path d="M158.562 345.429L166.967 345.428L170.965 313.012L158.561 313.013L158.562 345.429Z" fill="#FFB6B6"/>
<path d="M156.419 342.685L172.969 342.684H172.97C175.767 342.684 178.45 343.795 180.428 345.773C182.406 347.751 183.517 350.434 183.518 353.231V353.574L156.419 353.575L156.419 342.685Z" fill="#2F2E41"/>
<path d="M164.176 177.295L168.442 186.479L176.132 268.606L170.154 339.196H156.173L139.676 227.93L131.927 336.633L113.062 335.871L109.441 188.494L164.176 177.295Z" fill="#2F2E41"/>
<path d="M96.2013 101.507L113.886 94.3125L138.847 95.7124L161.038 103.799L168.442 186.479C149.136 197.021 129.58 199.899 109.684 192.36L91.2189 138.509L96.2013 101.507Z" fill="#E4E4E4"/>
<path d="M154.134 105.985L161.982 103.799C161.982 103.799 167.918 99.9396 169.87 111.413C171.823 122.885 181.872 140.731 181.872 140.731L199.075 131.563L207.04 148.956L179.873 165.413L151.263 136.586L154.134 105.985Z" fill="#E4E4E4"/>
<path d="M111.087 78.9941C110.134 76.8316 109.617 74.5025 109.564 72.1399C109.511 69.7773 109.924 67.4274 110.779 65.2244C111.634 63.0214 112.915 61.0084 114.548 59.3003C116.181 57.5923 118.135 56.2227 120.297 55.2697C122.46 54.3166 124.789 53.7989 127.152 53.746C129.514 53.693 131.864 54.106 134.067 54.9612C136.27 55.8165 138.283 57.0973 139.991 58.7305C141.699 60.3637 143.069 62.3173 144.022 64.4798L144.125 64.7178C146.018 69.0998 146.094 74.0545 144.334 78.4919C143.463 80.6891 142.167 82.6932 140.521 84.3897C138.876 86.0862 136.912 87.442 134.742 88.3796C130.36 90.2731 125.406 90.3483 120.968 88.5888C116.531 86.8292 112.974 83.3789 111.08 78.997L111.087 78.9941Z" fill="#FFB6B6"/>
<path d="M135.518 62.5241C139.26 63.203 145.051 65.5588 148.265 62.7951C146.678 60.9406 144.681 59.4803 142.433 58.5295C141.99 58.3826 141.58 58.1509 141.226 57.8473C140.13 56.7401 140.977 54.8322 140.475 53.3351C140.232 52.788 139.865 52.305 139.403 51.9241C138.941 51.5431 138.397 51.2747 137.813 51.1399C136.698 50.8062 135.529 50.752 134.433 50.3473C131.84 49.3728 129.997 46.5839 127.339 45.8261C125.023 45.1562 122.693 46.1972 120.694 47.4121C118.696 48.627 116.719 50.0685 114.381 50.299C112.633 50.4584 111.527 53.3324 109.773 53.4165C106.097 53.5954 106.302 51.1727 106.03 55.0342C105.873 57.3386 102.58 61.9228 102.634 64.2472C102.688 65.7702 102.419 67.2787 102.462 68.8065C102.561 71.7162 103.728 74.4876 105.74 76.5916C107.414 78.3125 109.591 79.4733 110.999 81.4348C111.732 82.4762 112.24 83.6918 113.093 84.634C113.946 85.5763 115.39 86.1434 116.342 85.4706C117.293 84.7979 117.311 83.3421 117.783 82.2342C118.073 81.555 118.568 80.9834 119.199 80.5995C119.829 80.2155 120.564 80.0385 121.301 80.0931C122.066 80.1931 122.787 80.5045 123.385 80.9922C123.982 81.48 124.432 82.1248 124.683 82.8541C124.237 80.4059 123.062 78.1119 122.616 75.6619C122.169 73.2118 122.751 70.2849 124.861 69.3283C125.767 68.9068 126.99 68.7936 127.354 67.8223C127.577 67.2372 127.373 66.546 127.459 65.9132C127.923 62.8125 133.079 62.0453 135.518 62.5241Z" fill="#2F2E41"/>
<path d="M111.804 191.404C111.643 190.311 111.244 189.265 110.635 188.343C110.026 187.42 109.222 186.642 108.28 186.063C107.338 185.484 106.281 185.119 105.182 184.994C104.084 184.868 102.971 184.985 101.922 185.336L85.5098 164.053L80.9724 177.262L97.2537 195.447C97.9599 197.169 99.2734 198.573 100.945 199.391C102.617 200.21 104.531 200.387 106.325 199.889C108.118 199.39 109.667 198.251 110.677 196.688C111.687 195.124 112.088 193.244 111.804 191.404Z" fill="#FFB6B6"/>
<path d="M101.87 105.521L96.2013 101.507C96.2013 101.507 83.2322 100.764 81.3455 111.412L57.5649 150.533L87.0499 191.21L101.345 176.162L83.3076 155.083L98.452 127.277L101.87 105.521Z" fill="#E4E4E4"/>
<path d="M239.984 111.72H239.687V103.573C239.687 102.954 239.565 102.34 239.328 101.768C239.091 101.196 238.744 100.676 238.306 100.239C237.868 99.8007 237.348 99.4533 236.776 99.2164C236.204 98.9794 235.591 98.8574 234.972 98.8574H217.71C217.091 98.8574 216.478 98.9794 215.906 99.2164C215.334 99.4533 214.814 99.8007 214.376 100.239C213.938 100.676 213.591 101.196 213.354 101.768C213.117 102.34 212.995 102.954 212.995 103.573V148.27C212.995 148.889 213.117 149.502 213.354 150.074C213.591 150.646 213.938 151.166 214.376 151.604C214.814 152.042 215.334 152.389 215.906 152.626C216.478 152.863 217.091 152.985 217.71 152.985H234.972C235.591 152.985 236.204 152.863 236.776 152.626C237.348 152.389 237.868 152.042 238.306 151.604C238.744 151.166 239.091 150.646 239.328 150.074C239.565 149.502 239.687 148.889 239.687 148.27V117.52H239.984V111.72Z" fill="#3F3D56"/>
<path d="M235.162 100.084H232.909C233.012 100.338 233.052 100.614 233.024 100.887C232.996 101.16 232.901 101.422 232.748 101.649C232.595 101.877 232.388 102.064 232.146 102.193C231.904 102.322 231.634 102.389 231.36 102.389H221.471C221.197 102.389 220.927 102.322 220.684 102.193C220.442 102.064 220.236 101.877 220.083 101.649C219.93 101.422 219.835 101.16 219.807 100.887C219.779 100.614 219.818 100.338 219.922 100.084H217.818C216.884 100.084 215.988 100.455 215.328 101.116C214.667 101.776 214.296 102.672 214.296 103.606V148.237C214.296 149.171 214.667 150.066 215.328 150.727C215.988 151.387 216.884 151.758 217.818 151.758H235.162C236.096 151.758 236.992 151.387 237.652 150.727C238.312 150.066 238.683 149.171 238.683 148.237V103.606C238.683 102.672 238.312 101.776 237.652 101.116C236.992 100.455 236.096 100.084 235.162 100.084Z" fill="#6C63FF"/>
<path d="M390.858 84.1906H264.278C263.497 84.1897 262.749 83.8793 262.197 83.3274C261.645 82.7755 261.335 82.0273 261.334 81.2469V2.94373C261.335 2.16328 261.645 1.41505 262.197 0.863184C262.749 0.311321 263.497 0.000893173 264.278 0H390.858C391.638 0.000893177 392.387 0.311321 392.938 0.863184C393.49 1.41505 393.801 2.16328 393.802 2.94373V81.2469C393.801 82.0273 393.49 82.7755 392.938 83.3274C392.387 83.8793 391.638 84.1897 390.858 84.1906Z" fill="white"/>
<path d="M390.858 84.1906H264.278C263.497 84.1897 262.749 83.8793 262.197 83.3274C261.645 82.7755 261.335 82.0273 261.334 81.2469V2.94373C261.335 2.16328 261.645 1.41505 262.197 0.863184C262.749 0.311321 263.497 0.000893173 264.278 0H390.858C391.638 0.000893177 392.387 0.311321 392.938 0.863184C393.49 1.41505 393.801 2.16328 393.802 2.94373V81.2469C393.801 82.0273 393.49 82.7755 392.938 83.3274C392.387 83.8793 391.638 84.1897 390.858 84.1906ZM264.278 1.17749C263.809 1.178 263.36 1.36426 263.029 1.69538C262.698 2.0265 262.512 2.47546 262.511 2.94373V81.2469C262.512 81.7151 262.698 82.1641 263.029 82.4952C263.36 82.8263 263.809 83.0126 264.278 83.0131H390.858C391.326 83.0126 391.775 82.8263 392.106 82.4952C392.437 82.1641 392.624 81.7151 392.624 81.2469V2.94373C392.624 2.47546 392.437 2.0265 392.106 1.69538C391.775 1.36426 391.326 1.178 390.858 1.17749H264.278Z" fill="#3F3D56"/>
<path d="M365.836 26.151H289.299C288.597 26.151 287.923 25.8719 287.426 25.375C286.929 24.8782 286.65 24.2043 286.65 23.5017C286.65 22.799 286.929 22.1251 287.426 21.6283C287.923 21.1314 288.597 20.8523 289.299 20.8523H365.836C366.539 20.8523 367.213 21.1314 367.71 21.6283C368.206 22.1251 368.486 22.799 368.486 23.5017C368.486 24.2043 368.206 24.8782 367.71 25.375C367.213 25.8719 366.539 26.151 365.836 26.151Z" fill="#CCCCCC"/>
<path d="M365.836 44.4022H289.299C288.597 44.4022 287.923 44.1231 287.426 43.6263C286.929 43.1294 286.65 42.4555 286.65 41.7529C286.65 41.0502 286.929 40.3763 287.426 39.8795C287.923 39.3826 288.597 39.1035 289.299 39.1035H365.836C366.539 39.1035 367.213 39.3826 367.71 39.8795C368.206 40.3763 368.486 41.0502 368.486 41.7529C368.486 42.4555 368.206 43.1294 367.71 43.6263C367.213 44.1231 366.539 44.4022 365.836 44.4022Z" fill="#CCCCCC"/>
<path d="M359.017 73.3397C364.247 73.3397 368.486 69.1007 368.486 63.8716C368.486 58.6426 364.247 54.4036 359.017 54.4036C353.788 54.4036 349.549 58.6426 349.549 63.8716C349.549 69.1007 353.788 73.3397 359.017 73.3397Z" fill="#6C63FF"/>
<path d="M359.278 59.4113V58.5093H359.545V59.4113C359.923 59.4278 360.294 59.5185 360.637 59.6784C360.885 59.7953 361.1 59.9741 361.26 60.1978C361.407 60.4047 361.486 60.6527 361.485 60.9069C361.491 61.0926 361.429 61.274 361.31 61.4172C361.259 61.4824 361.194 61.5351 361.119 61.5711C361.045 61.6071 360.963 61.6255 360.88 61.6249C360.818 61.6261 360.757 61.6146 360.7 61.5912C360.642 61.5677 360.591 61.5327 360.548 61.4885C360.503 61.4444 360.468 61.3916 360.444 61.3335C360.421 61.2753 360.41 61.2129 360.411 61.1502C360.411 61.0624 360.429 60.9755 360.465 60.895L360.571 60.6695C360.609 60.5752 360.627 60.4743 360.625 60.3727C360.628 60.2155 360.578 60.0618 360.482 59.9367C360.378 59.8054 360.238 59.7074 360.079 59.6546C359.906 59.5979 359.726 59.562 359.545 59.5478V62.794L359.604 62.8296C360.162 63.1249 360.669 63.5075 361.106 63.9631C361.299 64.192 361.452 64.4518 361.559 64.7317C361.666 65.003 361.721 65.2917 361.723 65.5832C361.728 65.9606 361.629 66.3321 361.438 66.6574C361.251 66.975 360.977 67.2324 360.649 67.3992C360.302 67.5691 359.928 67.6776 359.545 67.7197V68.687H359.278V67.7375C358.89 67.7344 358.507 67.6558 358.15 67.5061C357.794 67.3735 357.479 67.1481 357.239 66.8532C357.028 66.5889 356.914 66.26 356.916 65.9215C356.908 65.6838 356.981 65.4506 357.123 65.2597C357.18 65.1774 357.255 65.1099 357.343 65.0629C357.43 65.0159 357.528 64.9908 357.628 64.9898C357.688 64.9877 357.747 64.9979 357.803 65.0198C357.858 65.0416 357.909 65.0747 357.951 65.1169C357.993 65.1591 358.027 65.2095 358.048 65.2651C358.07 65.3207 358.081 65.3802 358.079 65.4399C358.059 65.6226 357.982 65.7944 357.859 65.9313C357.795 66.016 357.741 66.1073 357.696 66.2037C357.666 66.2789 357.65 66.3594 357.652 66.4405C357.653 66.6569 357.727 66.8666 357.862 67.0355C358.01 67.2246 358.206 67.3708 358.429 67.4588C358.684 67.5583 358.956 67.6066 359.23 67.601H359.278V63.7257L358.939 63.5299C358.619 63.344 358.375 63.1897 358.206 63.067C358.042 62.9479 357.89 62.8127 357.752 62.6634C357.412 62.3003 357.223 61.8204 357.224 61.3222C357.223 61.0121 357.3 60.7068 357.45 60.4351C357.596 60.164 357.811 59.9359 358.073 59.7733C358.438 59.5534 358.852 59.4289 359.278 59.4113ZM359.278 59.5419C359.048 59.549 358.821 59.5993 358.61 59.69C358.399 59.7947 358.225 59.9623 358.114 60.1698C357.986 60.3955 357.921 60.651 357.925 60.9101C357.922 61.2261 358.019 61.5349 358.202 61.7926C358.299 61.9329 358.415 62.0586 358.548 62.1659C358.762 62.3258 358.986 62.4721 359.219 62.6041L359.278 62.6398V59.5419ZM359.545 67.5891C359.698 67.5764 359.849 67.5444 359.994 67.4942C360.111 67.4486 360.221 67.3845 360.319 67.3043C360.502 67.1482 360.644 66.9496 360.732 66.7258C360.835 66.4786 360.888 66.2131 360.886 65.9453C360.862 65.5154 360.726 65.0993 360.491 64.7388C360.255 64.3783 359.929 64.0863 359.545 63.8919V67.5891Z" fill="white"/>
<path d="M258.343 354H0.67629C0.496927 354 0.324909 353.929 0.19808 353.802C0.0712513 353.675 0 353.503 0 353.324C0 353.144 0.0712513 352.972 0.19808 352.846C0.324909 352.719 0.496927 352.647 0.67629 352.647H258.343C258.522 352.647 258.694 352.719 258.821 352.846C258.948 352.972 259.019 353.144 259.019 353.324C259.019 353.503 258.948 353.675 258.821 353.802C258.694 353.929 258.522 354 258.343 354Z" fill="#CACACA"/>
</g>
<defs>
<clipPath id="clip0_275_1584">
<rect width="567.946" height="354" fill="white"/>
</clipPath>
</defs>
</svg>
